<mxfile host="app.diagrams.net" agent="Mozilla/5.0 (Macintosh; Intel Mac OS X 10_15_7) AppleWebKit/537.36 (KHTML, like Gecko) Chrome/126.0.0.0 Safari/537.36" version="24.7.7">
  <diagram name="Page-1" id="4N_55ABV_aK4ivOVy2B4">
    <mxGraphModel dx="3714" dy="2922" grid="1" gridSize="10" guides="1" tooltips="1" connect="1" arrows="1" fold="1" page="1" pageScale="1" pageWidth="827" pageHeight="1169" math="0" shadow="0">
      <root>
        <mxCell id="0" />
        <mxCell id="1" parent="0" />
        <mxCell id="l6wvhNopdkESr6-qBpRT-1" value="&lt;font style=&quot;font-size: 24px;&quot;&gt;Service 1&lt;/font&gt;" style="rounded=1;whiteSpace=wrap;html=1;fillColor=#e1d5e7;strokeColor=#9673a6;strokeWidth=5;" vertex="1" parent="1">
          <mxGeometry x="-70" y="160" width="120" height="60" as="geometry" />
        </mxCell>
        <mxCell id="l6wvhNopdkESr6-qBpRT-2" value="&lt;font style=&quot;font-size: 24px;&quot;&gt;Service 2&lt;/font&gt;" style="rounded=1;whiteSpace=wrap;html=1;fillColor=#e1d5e7;strokeColor=#9673a6;strokeWidth=5;" vertex="1" parent="1">
          <mxGeometry x="-70" y="250" width="120" height="60" as="geometry" />
        </mxCell>
        <mxCell id="l6wvhNopdkESr6-qBpRT-3" value="&lt;font style=&quot;font-size: 24px;&quot;&gt;Service N&lt;/font&gt;" style="rounded=1;whiteSpace=wrap;html=1;fillColor=#e1d5e7;strokeColor=#9673a6;strokeWidth=5;" vertex="1" parent="1">
          <mxGeometry x="-70" y="430" width="120" height="60" as="geometry" />
        </mxCell>
        <mxCell id="l6wvhNopdkESr6-qBpRT-4" value="&lt;font style=&quot;font-size: 24px;&quot;&gt;K&amp;nbsp; &amp;nbsp; &amp;nbsp;A&amp;nbsp; &amp;nbsp; &amp;nbsp;F&amp;nbsp; &amp;nbsp; &amp;nbsp;K&amp;nbsp; &amp;nbsp; &amp;nbsp;A&lt;/font&gt;" style="rounded=0;whiteSpace=wrap;html=1;rotation=-90;fillColor=#ffe6cc;strokeColor=#d79b00;strokeWidth=5;" vertex="1" parent="1">
          <mxGeometry x="2.5" y="302.5" width="355" height="60" as="geometry" />
        </mxCell>
        <mxCell id="l6wvhNopdkESr6-qBpRT-5" value="" style="endArrow=classic;html=1;rounded=0;strokeWidth=5;" edge="1" parent="1">
          <mxGeometry width="50" height="50" relative="1" as="geometry">
            <mxPoint x="50" y="190" as="sourcePoint" />
            <mxPoint x="150" y="190" as="targetPoint" />
          </mxGeometry>
        </mxCell>
        <mxCell id="l6wvhNopdkESr6-qBpRT-6" value="" style="endArrow=classic;html=1;rounded=0;strokeWidth=5;" edge="1" parent="1">
          <mxGeometry width="50" height="50" relative="1" as="geometry">
            <mxPoint x="50" y="279.47" as="sourcePoint" />
            <mxPoint x="150" y="279.47" as="targetPoint" />
          </mxGeometry>
        </mxCell>
        <mxCell id="l6wvhNopdkESr6-qBpRT-7" value="" style="endArrow=classic;html=1;rounded=0;strokeWidth=5;" edge="1" parent="1">
          <mxGeometry width="50" height="50" relative="1" as="geometry">
            <mxPoint x="50" y="459.47" as="sourcePoint" />
            <mxPoint x="150" y="459.47" as="targetPoint" />
          </mxGeometry>
        </mxCell>
        <mxCell id="l6wvhNopdkESr6-qBpRT-8" value="&lt;font style=&quot;font-size: 24px;&quot;&gt;K&amp;nbsp; &amp;nbsp; &amp;nbsp;A&amp;nbsp; &amp;nbsp; &amp;nbsp;F&amp;nbsp; &amp;nbsp; &amp;nbsp;K&amp;nbsp; &amp;nbsp; &amp;nbsp;A&lt;/font&gt;" style="rounded=0;whiteSpace=wrap;html=1;rotation=-90;fillColor=#ffe6cc;strokeColor=#d79b00;strokeWidth=5;" vertex="1" parent="1">
          <mxGeometry x="390" y="302.5" width="355" height="60" as="geometry" />
        </mxCell>
        <mxCell id="l6wvhNopdkESr6-qBpRT-9" value="&lt;font style=&quot;font-size: 24px;&quot;&gt;&lt;b&gt;Notification Prioritizer&amp;nbsp;&lt;/b&gt;&lt;/font&gt;" style="rounded=1;whiteSpace=wrap;html=1;fillColor=#d5e8d4;strokeColor=#82b366;strokeWidth=5;" vertex="1" parent="1">
          <mxGeometry x="280" y="167.5" width="210" height="330" as="geometry" />
        </mxCell>
        <mxCell id="l6wvhNopdkESr6-qBpRT-10" value="" style="rounded=0;whiteSpace=wrap;html=1;fillColor=#dae8fc;strokeColor=#6c8ebf;strokeWidth=5;" vertex="1" parent="1">
          <mxGeometry x="720" y="224.5" width="140" height="227" as="geometry" />
        </mxCell>
        <mxCell id="l6wvhNopdkESr6-qBpRT-11" value="&lt;span style=&quot;font-size: 18px;&quot;&gt;RATE LIMITER +&lt;br&gt;NOTIFCATION PREFERENCE&amp;nbsp;&lt;/span&gt;&lt;div&gt;&lt;span style=&quot;font-size: 18px;&quot;&gt;+&amp;nbsp;&lt;/span&gt;&lt;/div&gt;&lt;div&gt;&lt;span style=&quot;font-size: 18px;&quot;&gt;USER INFO Fetcher&lt;/span&gt;&lt;/div&gt;&lt;div&gt;&lt;span style=&quot;font-size: 18px;&quot;&gt;+&lt;/span&gt;&lt;/div&gt;&lt;div&gt;&lt;span style=&quot;font-size: 18px;&quot;&gt;Authentication&lt;/span&gt;&lt;/div&gt;" style="rounded=0;whiteSpace=wrap;html=1;fillColor=#d5e8d4;strokeColor=#82b366;strokeWidth=5;" vertex="1" parent="1">
          <mxGeometry x="860" y="219" width="140" height="227" as="geometry" />
        </mxCell>
        <mxCell id="l6wvhNopdkESr6-qBpRT-12" value="" style="image;aspect=fixed;perimeter=ellipsePerimeter;html=1;align=center;shadow=0;dashed=0;spacingTop=3;image=img/lib/active_directory/database.svg;strokeWidth=5;" vertex="1" parent="1">
          <mxGeometry x="665" y="797" width="162.16" height="120" as="geometry" />
        </mxCell>
        <mxCell id="l6wvhNopdkESr6-qBpRT-13" value="" style="outlineConnect=0;dashed=0;verticalLabelPosition=bottom;verticalAlign=top;align=center;html=1;shape=mxgraph.aws3.cache_node;fillColor=#2E73B8;gradientColor=none;strokeWidth=5;" vertex="1" parent="1">
          <mxGeometry x="800" y="620" width="60" height="68" as="geometry" />
        </mxCell>
        <mxCell id="l6wvhNopdkESr6-qBpRT-14" value="" style="outlineConnect=0;dashed=0;verticalLabelPosition=bottom;verticalAlign=top;align=center;html=1;shape=mxgraph.aws3.cache_node;fillColor=#2E73B8;gradientColor=none;strokeWidth=5;" vertex="1" parent="1">
          <mxGeometry x="827" y="658" width="60" height="63" as="geometry" />
        </mxCell>
        <mxCell id="l6wvhNopdkESr6-qBpRT-15" value="" style="outlineConnect=0;dashed=0;verticalLabelPosition=bottom;verticalAlign=top;align=center;html=1;shape=mxgraph.aws3.cache_node;fillColor=#2E73B8;gradientColor=none;strokeWidth=5;" vertex="1" parent="1">
          <mxGeometry x="860" y="698" width="60" height="63" as="geometry" />
        </mxCell>
        <mxCell id="l6wvhNopdkESr6-qBpRT-16" value="" style="image;aspect=fixed;perimeter=ellipsePerimeter;html=1;align=center;shadow=0;dashed=0;spacingTop=3;image=img/lib/active_directory/database.svg;strokeWidth=5;" vertex="1" parent="1">
          <mxGeometry x="920" y="797" width="162.16" height="120" as="geometry" />
        </mxCell>
        <mxCell id="l6wvhNopdkESr6-qBpRT-17" value="" style="shape=flexArrow;endArrow=classic;startArrow=classic;html=1;rounded=0;strokeWidth=5;" edge="1" parent="1">
          <mxGeometry width="100" height="100" relative="1" as="geometry">
            <mxPoint x="860" y="615" as="sourcePoint" />
            <mxPoint x="860" y="455" as="targetPoint" />
          </mxGeometry>
        </mxCell>
        <mxCell id="l6wvhNopdkESr6-qBpRT-18" value="" style="endArrow=classic;startArrow=classic;html=1;rounded=0;entryX=0;entryY=0.5;entryDx=0;entryDy=0;strokeWidth=5;" edge="1" parent="1" target="l6wvhNopdkESr6-qBpRT-16">
          <mxGeometry width="50" height="50" relative="1" as="geometry">
            <mxPoint x="830" y="857" as="sourcePoint" />
            <mxPoint x="900" y="847" as="targetPoint" />
          </mxGeometry>
        </mxCell>
        <mxCell id="l6wvhNopdkESr6-qBpRT-19" value="" style="shape=flexArrow;endArrow=classic;startArrow=classic;html=1;rounded=0;strokeWidth=5;" edge="1" parent="1">
          <mxGeometry width="100" height="100" relative="1" as="geometry">
            <mxPoint x="870" y="847" as="sourcePoint" />
            <mxPoint x="870" y="760" as="targetPoint" />
          </mxGeometry>
        </mxCell>
        <mxCell id="l6wvhNopdkESr6-qBpRT-20" value="" style="endArrow=classic;html=1;rounded=0;strokeWidth=5;" edge="1" parent="1">
          <mxGeometry width="50" height="50" relative="1" as="geometry">
            <mxPoint x="600" y="240" as="sourcePoint" />
            <mxPoint x="720" y="240" as="targetPoint" />
          </mxGeometry>
        </mxCell>
        <mxCell id="l6wvhNopdkESr6-qBpRT-21" value="" style="endArrow=classic;html=1;rounded=0;strokeWidth=5;" edge="1" parent="1">
          <mxGeometry width="50" height="50" relative="1" as="geometry">
            <mxPoint x="600" y="332.05" as="sourcePoint" />
            <mxPoint x="720" y="332.05" as="targetPoint" />
          </mxGeometry>
        </mxCell>
        <mxCell id="l6wvhNopdkESr6-qBpRT-22" value="" style="endArrow=classic;html=1;rounded=0;strokeWidth=5;" edge="1" parent="1">
          <mxGeometry width="50" height="50" relative="1" as="geometry">
            <mxPoint x="600" y="420" as="sourcePoint" />
            <mxPoint x="720" y="420" as="targetPoint" />
          </mxGeometry>
        </mxCell>
        <mxCell id="l6wvhNopdkESr6-qBpRT-23" value="" style="endArrow=classic;html=1;rounded=0;entryX=0;entryY=0.5;entryDx=0;entryDy=0;exitX=0.5;exitY=1;exitDx=0;exitDy=0;strokeWidth=5;" edge="1" parent="1" source="l6wvhNopdkESr6-qBpRT-4" target="l6wvhNopdkESr6-qBpRT-9">
          <mxGeometry width="50" height="50" relative="1" as="geometry">
            <mxPoint x="350" y="330" as="sourcePoint" />
            <mxPoint x="400" y="280" as="targetPoint" />
          </mxGeometry>
        </mxCell>
        <mxCell id="l6wvhNopdkESr6-qBpRT-24" value="" style="endArrow=classic;html=1;rounded=0;entryX=0.5;entryY=0;entryDx=0;entryDy=0;exitX=0.5;exitY=1;exitDx=0;exitDy=0;strokeWidth=5;" edge="1" parent="1" target="l6wvhNopdkESr6-qBpRT-8">
          <mxGeometry width="50" height="50" relative="1" as="geometry">
            <mxPoint x="500" y="332.21" as="sourcePoint" />
            <mxPoint x="530" y="332.21" as="targetPoint" />
          </mxGeometry>
        </mxCell>
        <mxCell id="l6wvhNopdkESr6-qBpRT-25" value="" style="sketch=0;aspect=fixed;pointerEvents=1;shadow=0;dashed=0;html=1;strokeColor=none;labelPosition=center;verticalLabelPosition=bottom;verticalAlign=top;align=center;fillColor=#00188D;shape=mxgraph.azure.queue_generic;strokeWidth=5;" vertex="1" parent="1">
          <mxGeometry x="1140" y="130" width="160" height="48" as="geometry" />
        </mxCell>
        <mxCell id="l6wvhNopdkESr6-qBpRT-26" value="" style="sketch=0;aspect=fixed;pointerEvents=1;shadow=0;dashed=0;html=1;strokeColor=none;labelPosition=center;verticalLabelPosition=bottom;verticalAlign=top;align=center;fillColor=#00188D;shape=mxgraph.azure.queue_generic;strokeWidth=5;" vertex="1" parent="1">
          <mxGeometry x="1140" y="295" width="160" height="48" as="geometry" />
        </mxCell>
        <mxCell id="l6wvhNopdkESr6-qBpRT-27" value="" style="sketch=0;aspect=fixed;pointerEvents=1;shadow=0;dashed=0;html=1;strokeColor=none;labelPosition=center;verticalLabelPosition=bottom;verticalAlign=top;align=center;fillColor=#00188D;shape=mxgraph.azure.queue_generic;strokeWidth=5;" vertex="1" parent="1">
          <mxGeometry x="1140" y="474" width="160" height="48" as="geometry" />
        </mxCell>
        <mxCell id="l6wvhNopdkESr6-qBpRT-28" value="" style="sketch=0;aspect=fixed;pointerEvents=1;shadow=0;dashed=0;html=1;strokeColor=none;labelPosition=center;verticalLabelPosition=bottom;verticalAlign=top;align=center;fillColor=#00188D;shape=mxgraph.azure.queue_generic;strokeWidth=5;" vertex="1" parent="1">
          <mxGeometry x="1150" y="628.5" width="160" height="48" as="geometry" />
        </mxCell>
        <mxCell id="l6wvhNopdkESr6-qBpRT-29" value="&lt;font style=&quot;font-size: 24px;&quot;&gt;IOS&lt;/font&gt;" style="text;html=1;align=center;verticalAlign=middle;whiteSpace=wrap;rounded=0;strokeWidth=5;" vertex="1" parent="1">
          <mxGeometry x="1140" y="90" width="60" height="30" as="geometry" />
        </mxCell>
        <mxCell id="l6wvhNopdkESr6-qBpRT-30" value="&lt;font style=&quot;font-size: 24px;&quot;&gt;ANDROID&lt;/font&gt;" style="text;html=1;align=center;verticalAlign=middle;whiteSpace=wrap;rounded=0;strokeWidth=5;" vertex="1" parent="1">
          <mxGeometry x="1170" y="265" width="60" height="30" as="geometry" />
        </mxCell>
        <mxCell id="l6wvhNopdkESr6-qBpRT-31" value="&lt;font style=&quot;font-size: 24px;&quot;&gt;EMAIL&lt;/font&gt;" style="text;html=1;align=center;verticalAlign=middle;whiteSpace=wrap;rounded=0;strokeWidth=5;" vertex="1" parent="1">
          <mxGeometry x="1150" y="430" width="60" height="30" as="geometry" />
        </mxCell>
        <mxCell id="l6wvhNopdkESr6-qBpRT-32" value="&lt;font style=&quot;font-size: 24px;&quot;&gt;SMS&lt;/font&gt;" style="text;html=1;align=center;verticalAlign=middle;whiteSpace=wrap;rounded=0;strokeWidth=5;" vertex="1" parent="1">
          <mxGeometry x="1150" y="585" width="60" height="30" as="geometry" />
        </mxCell>
        <mxCell id="l6wvhNopdkESr6-qBpRT-33" value="" style="endArrow=classic;html=1;rounded=0;entryX=0;entryY=0.5;entryDx=0;entryDy=0;entryPerimeter=0;strokeWidth=5;" edge="1" parent="1" target="l6wvhNopdkESr6-qBpRT-25">
          <mxGeometry width="50" height="50" relative="1" as="geometry">
            <mxPoint x="1000" y="220" as="sourcePoint" />
            <mxPoint x="990" y="160" as="targetPoint" />
            <Array as="points">
              <mxPoint x="1000" y="154" />
            </Array>
          </mxGeometry>
        </mxCell>
        <mxCell id="l6wvhNopdkESr6-qBpRT-34" value="" style="endArrow=classic;html=1;rounded=0;entryX=0;entryY=0.5;entryDx=0;entryDy=0;entryPerimeter=0;strokeWidth=5;" edge="1" parent="1" target="l6wvhNopdkESr6-qBpRT-26">
          <mxGeometry width="50" height="50" relative="1" as="geometry">
            <mxPoint x="1000" y="320" as="sourcePoint" />
            <mxPoint x="1050" y="270" as="targetPoint" />
          </mxGeometry>
        </mxCell>
        <mxCell id="l6wvhNopdkESr6-qBpRT-35" value="" style="endArrow=classic;html=1;rounded=0;entryX=0;entryY=0.5;entryDx=0;entryDy=0;entryPerimeter=0;strokeWidth=5;" edge="1" parent="1" target="l6wvhNopdkESr6-qBpRT-27">
          <mxGeometry width="50" height="50" relative="1" as="geometry">
            <mxPoint x="1000" y="400" as="sourcePoint" />
            <mxPoint x="1050" y="350" as="targetPoint" />
            <Array as="points">
              <mxPoint x="1080" y="400" />
              <mxPoint x="1080" y="498" />
            </Array>
          </mxGeometry>
        </mxCell>
        <mxCell id="l6wvhNopdkESr6-qBpRT-36" value="" style="endArrow=classic;html=1;rounded=0;entryX=-0.012;entryY=0.379;entryDx=0;entryDy=0;entryPerimeter=0;strokeWidth=5;" edge="1" parent="1" target="l6wvhNopdkESr6-qBpRT-28">
          <mxGeometry width="50" height="50" relative="1" as="geometry">
            <mxPoint x="1000" y="446" as="sourcePoint" />
            <mxPoint x="1150.0000000000002" y="642.068" as="targetPoint" />
            <Array as="points">
              <mxPoint x="1000" y="647" />
              <mxPoint x="1070.16" y="646" />
            </Array>
          </mxGeometry>
        </mxCell>
        <mxCell id="l6wvhNopdkESr6-qBpRT-37" value="" style="outlineConnect=0;dashed=0;verticalLabelPosition=bottom;verticalAlign=top;align=center;html=1;shape=mxgraph.aws3.worker;fillColor=#D9A741;gradientColor=none;strokeWidth=5;" vertex="1" parent="1">
          <mxGeometry x="1410" y="100" width="100" height="93" as="geometry" />
        </mxCell>
        <mxCell id="l6wvhNopdkESr6-qBpRT-38" value="" style="rounded=0;whiteSpace=wrap;html=1;rotation=90;strokeWidth=5;" vertex="1" parent="1">
          <mxGeometry x="1360" y="343" width="720" height="130" as="geometry" />
        </mxCell>
        <mxCell id="l6wvhNopdkESr6-qBpRT-39" value="" style="outlineConnect=0;dashed=0;verticalLabelPosition=bottom;verticalAlign=top;align=center;html=1;shape=mxgraph.aws3.worker;fillColor=#D9A741;gradientColor=none;strokeWidth=5;" vertex="1" parent="1">
          <mxGeometry x="1410" y="272.5" width="100" height="93" as="geometry" />
        </mxCell>
        <mxCell id="l6wvhNopdkESr6-qBpRT-40" value="" style="outlineConnect=0;dashed=0;verticalLabelPosition=bottom;verticalAlign=top;align=center;html=1;shape=mxgraph.aws3.worker;fillColor=#D9A741;gradientColor=none;strokeWidth=5;" vertex="1" parent="1">
          <mxGeometry x="1410" y="451.5" width="100" height="93" as="geometry" />
        </mxCell>
        <mxCell id="l6wvhNopdkESr6-qBpRT-41" value="" style="outlineConnect=0;dashed=0;verticalLabelPosition=bottom;verticalAlign=top;align=center;html=1;shape=mxgraph.aws3.worker;fillColor=#D9A741;gradientColor=none;strokeWidth=5;" vertex="1" parent="1">
          <mxGeometry x="1420" y="620" width="100" height="93" as="geometry" />
        </mxCell>
        <mxCell id="l6wvhNopdkESr6-qBpRT-42" value="&lt;font style=&quot;font-size: 24px;&quot;&gt;&lt;b&gt;Workers&lt;/b&gt;&lt;/font&gt;" style="text;html=1;align=center;verticalAlign=middle;whiteSpace=wrap;rounded=0;strokeWidth=5;" vertex="1" parent="1">
          <mxGeometry x="1430" y="210" width="60" height="30" as="geometry" />
        </mxCell>
        <mxCell id="l6wvhNopdkESr6-qBpRT-43" value="&lt;font style=&quot;font-size: 24px;&quot;&gt;Workers&lt;/font&gt;" style="text;html=1;align=center;verticalAlign=middle;whiteSpace=wrap;rounded=0;strokeWidth=5;" vertex="1" parent="1">
          <mxGeometry x="1430" y="380" width="60" height="30" as="geometry" />
        </mxCell>
        <mxCell id="l6wvhNopdkESr6-qBpRT-44" value="&lt;font style=&quot;font-size: 24px;&quot;&gt;Workers&lt;/font&gt;" style="text;html=1;align=center;verticalAlign=middle;whiteSpace=wrap;rounded=0;strokeWidth=5;" vertex="1" parent="1">
          <mxGeometry x="1430" y="721" width="60" height="30" as="geometry" />
        </mxCell>
        <mxCell id="l6wvhNopdkESr6-qBpRT-45" value="&lt;font style=&quot;font-size: 24px;&quot;&gt;Workers&lt;/font&gt;" style="text;html=1;align=center;verticalAlign=middle;whiteSpace=wrap;rounded=0;strokeWidth=5;" vertex="1" parent="1">
          <mxGeometry x="1430" y="555" width="60" height="30" as="geometry" />
        </mxCell>
        <mxCell id="l6wvhNopdkESr6-qBpRT-46" value="" style="endArrow=classic;html=1;rounded=0;strokeWidth=5;" edge="1" parent="1">
          <mxGeometry width="50" height="50" relative="1" as="geometry">
            <mxPoint x="1300" y="153.58" as="sourcePoint" />
            <mxPoint x="1410" y="153.58" as="targetPoint" />
          </mxGeometry>
        </mxCell>
        <mxCell id="l6wvhNopdkESr6-qBpRT-47" value="" style="endArrow=classic;html=1;rounded=0;strokeWidth=5;" edge="1" parent="1">
          <mxGeometry width="50" height="50" relative="1" as="geometry">
            <mxPoint x="1310" y="653.58" as="sourcePoint" />
            <mxPoint x="1420" y="653.58" as="targetPoint" />
          </mxGeometry>
        </mxCell>
        <mxCell id="l6wvhNopdkESr6-qBpRT-48" value="" style="endArrow=classic;html=1;rounded=0;strokeWidth=5;" edge="1" parent="1">
          <mxGeometry width="50" height="50" relative="1" as="geometry">
            <mxPoint x="1300" y="500" as="sourcePoint" />
            <mxPoint x="1410" y="500" as="targetPoint" />
          </mxGeometry>
        </mxCell>
        <mxCell id="l6wvhNopdkESr6-qBpRT-49" value="" style="endArrow=classic;html=1;rounded=0;strokeWidth=5;" edge="1" parent="1">
          <mxGeometry width="50" height="50" relative="1" as="geometry">
            <mxPoint x="1300" y="318.58000000000004" as="sourcePoint" />
            <mxPoint x="1410" y="318.58000000000004" as="targetPoint" />
          </mxGeometry>
        </mxCell>
        <mxCell id="l6wvhNopdkESr6-qBpRT-50" value="&lt;font style=&quot;font-size: 24px;&quot;&gt;&lt;b&gt;&lt;font style=&quot;&quot;&gt;RETRY&amp;nbsp;&lt;/font&gt;&lt;span style=&quot;background-color: initial;&quot;&gt;ON&lt;/span&gt;&lt;/b&gt;&lt;/font&gt;&lt;div&gt;&lt;font style=&quot;font-size: 24px;&quot;&gt;&lt;b&gt;&lt;span style=&quot;background-color: initial;&quot;&gt;&amp;nbsp;&lt;/span&gt;&lt;span style=&quot;background-color: initial;&quot;&gt;ERROR&lt;/span&gt;&lt;/b&gt;&lt;/font&gt;&lt;/div&gt;" style="rounded=0;whiteSpace=wrap;html=1;strokeWidth=5;fillColor=#fa6800;strokeColor=#C73500;fontColor=#000000;" vertex="1" parent="1">
          <mxGeometry x="1240" y="-120" width="190" height="130" as="geometry" />
        </mxCell>
        <mxCell id="l6wvhNopdkESr6-qBpRT-51" value="" style="endArrow=classic;html=1;rounded=0;entryX=1;entryY=0.5;entryDx=0;entryDy=0;strokeWidth=5;" edge="1" parent="1" target="l6wvhNopdkESr6-qBpRT-50">
          <mxGeometry width="50" height="50" relative="1" as="geometry">
            <mxPoint x="1480" y="100" as="sourcePoint" />
            <mxPoint x="1480" y="-40" as="targetPoint" />
            <Array as="points">
              <mxPoint x="1480" y="-40" />
            </Array>
          </mxGeometry>
        </mxCell>
        <mxCell id="l6wvhNopdkESr6-qBpRT-52" value="" style="endArrow=classic;html=1;rounded=0;exitX=0;exitY=0.5;exitDx=0;exitDy=0;strokeWidth=5;" edge="1" parent="1" source="l6wvhNopdkESr6-qBpRT-50">
          <mxGeometry width="50" height="50" relative="1" as="geometry">
            <mxPoint x="1150" as="sourcePoint" />
            <mxPoint x="1200" y="127" as="targetPoint" />
            <Array as="points">
              <mxPoint x="1200" y="-40" />
            </Array>
          </mxGeometry>
        </mxCell>
        <mxCell id="l6wvhNopdkESr6-qBpRT-53" value="" style="endArrow=none;dashed=1;html=1;dashPattern=1 3;strokeWidth=5;rounded=0;exitX=0.317;exitY=-0.023;exitDx=0;exitDy=0;exitPerimeter=0;" edge="1" parent="1" source="l6wvhNopdkESr6-qBpRT-28">
          <mxGeometry width="50" height="50" relative="1" as="geometry">
            <mxPoint x="1150" y="230" as="sourcePoint" />
            <mxPoint x="1200" y="180" as="targetPoint" />
          </mxGeometry>
        </mxCell>
        <mxCell id="l6wvhNopdkESr6-qBpRT-54" value="&lt;font style=&quot;font-size: 24px;&quot;&gt;APN&#39;s&amp;nbsp; &amp;nbsp;&lt;/font&gt;" style="triangle;whiteSpace=wrap;html=1;strokeWidth=5;fillColor=#d80073;fontColor=#ffffff;strokeColor=#A50040;" vertex="1" parent="1">
          <mxGeometry x="1670" y="60" width="110" height="133" as="geometry" />
        </mxCell>
        <mxCell id="l6wvhNopdkESr6-qBpRT-55" value="&lt;span style=&quot;font-size: 24px;&quot;&gt;FCM&amp;nbsp;&amp;nbsp;&lt;/span&gt;" style="triangle;whiteSpace=wrap;html=1;strokeWidth=5;fillColor=#d80073;fontColor=#ffffff;strokeColor=#A50040;" vertex="1" parent="1">
          <mxGeometry x="1665" y="252.5" width="110" height="133" as="geometry" />
        </mxCell>
        <mxCell id="l6wvhNopdkESr6-qBpRT-56" value="&lt;span style=&quot;font-size: 24px;&quot;&gt;SMS SERVICE&lt;/span&gt;" style="triangle;whiteSpace=wrap;html=1;strokeWidth=5;fillColor=#d80073;fontColor=#ffffff;strokeColor=#A50040;" vertex="1" parent="1">
          <mxGeometry x="1670" y="600" width="110" height="133" as="geometry" />
        </mxCell>
        <mxCell id="l6wvhNopdkESr6-qBpRT-57" value="&lt;span style=&quot;font-size: 24px;&quot;&gt;EMAIL&lt;/span&gt;&lt;div&gt;&lt;span style=&quot;font-size: 24px;&quot;&gt;SERVICE&lt;/span&gt;&lt;/div&gt;" style="triangle;whiteSpace=wrap;html=1;strokeWidth=5;fillColor=#d80073;fontColor=#ffffff;strokeColor=#A50040;" vertex="1" parent="1">
          <mxGeometry x="1670" y="431.5" width="110" height="133" as="geometry" />
        </mxCell>
        <mxCell id="l6wvhNopdkESr6-qBpRT-58" value="" style="html=1;verticalLabelPosition=bottom;align=center;labelBackgroundColor=#ffffff;verticalAlign=top;strokeWidth=5;strokeColor=#0080F0;shadow=0;dashed=0;shape=mxgraph.ios7.icons.smartphone;" vertex="1" parent="1">
          <mxGeometry x="1930" y="40" width="70" height="90" as="geometry" />
        </mxCell>
        <mxCell id="l6wvhNopdkESr6-qBpRT-59" value="" style="html=1;verticalLabelPosition=bottom;align=center;labelBackgroundColor=#ffffff;verticalAlign=top;strokeWidth=5;strokeColor=#0080F0;shadow=0;dashed=0;shape=mxgraph.ios7.icons.smartphone;" vertex="1" parent="1">
          <mxGeometry x="1930" y="272.5" width="70" height="90" as="geometry" />
        </mxCell>
        <mxCell id="l6wvhNopdkESr6-qBpRT-60" value="" style="html=1;verticalLabelPosition=bottom;align=center;labelBackgroundColor=#ffffff;verticalAlign=top;strokeWidth=5;strokeColor=#0080F0;shadow=0;dashed=0;shape=mxgraph.ios7.icons.smartphone;" vertex="1" parent="1">
          <mxGeometry x="1930" y="454.5" width="70" height="90" as="geometry" />
        </mxCell>
        <mxCell id="l6wvhNopdkESr6-qBpRT-61" value="" style="html=1;verticalLabelPosition=bottom;align=center;labelBackgroundColor=#ffffff;verticalAlign=top;strokeWidth=5;strokeColor=#0080F0;shadow=0;dashed=0;shape=mxgraph.ios7.icons.smartphone;" vertex="1" parent="1">
          <mxGeometry x="1930" y="631" width="70" height="90" as="geometry" />
        </mxCell>
        <mxCell id="l6wvhNopdkESr6-qBpRT-62" value="" style="endArrow=classic;html=1;rounded=0;strokeWidth=5;" edge="1" parent="1">
          <mxGeometry width="50" height="50" relative="1" as="geometry">
            <mxPoint x="1510" y="140" as="sourcePoint" />
            <mxPoint x="1650" y="140" as="targetPoint" />
          </mxGeometry>
        </mxCell>
        <mxCell id="l6wvhNopdkESr6-qBpRT-63" value="" style="endArrow=classic;html=1;rounded=0;strokeWidth=5;" edge="1" parent="1">
          <mxGeometry width="50" height="50" relative="1" as="geometry">
            <mxPoint x="1510" y="309.40999999999997" as="sourcePoint" />
            <mxPoint x="1650" y="309.40999999999997" as="targetPoint" />
          </mxGeometry>
        </mxCell>
        <mxCell id="l6wvhNopdkESr6-qBpRT-64" value="" style="endArrow=classic;html=1;rounded=0;strokeWidth=5;" edge="1" parent="1">
          <mxGeometry width="50" height="50" relative="1" as="geometry">
            <mxPoint x="1510" y="510" as="sourcePoint" />
            <mxPoint x="1650" y="510" as="targetPoint" />
          </mxGeometry>
        </mxCell>
        <mxCell id="l6wvhNopdkESr6-qBpRT-65" value="" style="endArrow=classic;html=1;rounded=0;strokeWidth=5;" edge="1" parent="1">
          <mxGeometry width="50" height="50" relative="1" as="geometry">
            <mxPoint x="1520" y="665.91" as="sourcePoint" />
            <mxPoint x="1650" y="666" as="targetPoint" />
          </mxGeometry>
        </mxCell>
        <mxCell id="l6wvhNopdkESr6-qBpRT-66" value="" style="endArrow=classic;html=1;rounded=0;strokeWidth=5;" edge="1" parent="1">
          <mxGeometry width="50" height="50" relative="1" as="geometry">
            <mxPoint x="1790" y="85" as="sourcePoint" />
            <mxPoint x="1930" y="84.63999999999997" as="targetPoint" />
          </mxGeometry>
        </mxCell>
        <mxCell id="l6wvhNopdkESr6-qBpRT-67" value="" style="endArrow=classic;html=1;rounded=0;strokeWidth=5;" edge="1" parent="1">
          <mxGeometry width="50" height="50" relative="1" as="geometry">
            <mxPoint x="1790" y="318.54999999999995" as="sourcePoint" />
            <mxPoint x="1930" y="318.54999999999995" as="targetPoint" />
          </mxGeometry>
        </mxCell>
        <mxCell id="l6wvhNopdkESr6-qBpRT-68" value="" style="endArrow=classic;html=1;rounded=0;strokeWidth=5;" edge="1" parent="1">
          <mxGeometry width="50" height="50" relative="1" as="geometry">
            <mxPoint x="1790" y="674.23" as="sourcePoint" />
            <mxPoint x="1930" y="674.23" as="targetPoint" />
          </mxGeometry>
        </mxCell>
        <mxCell id="l6wvhNopdkESr6-qBpRT-69" value="" style="endArrow=classic;html=1;rounded=0;strokeWidth=5;" edge="1" parent="1">
          <mxGeometry width="50" height="50" relative="1" as="geometry">
            <mxPoint x="1790" y="509.99999999999994" as="sourcePoint" />
            <mxPoint x="1930" y="509.99999999999994" as="targetPoint" />
          </mxGeometry>
        </mxCell>
        <mxCell id="l6wvhNopdkESr6-qBpRT-70" value="&lt;font style=&quot;font-size: 36px;&quot;&gt;&lt;b style=&quot;&quot;&gt;&lt;font style=&quot;&quot;&gt;ANALYTIC &lt;/font&gt;SERVICE&lt;/b&gt;&lt;/font&gt;" style="rounded=0;whiteSpace=wrap;html=1;strokeWidth=5;fillColor=#f8cecc;strokeColor=#b85450;" vertex="1" parent="1">
          <mxGeometry x="1000" y="-250" width="430" height="100" as="geometry" />
        </mxCell>
        <mxCell id="l6wvhNopdkESr6-qBpRT-71" value="" style="endArrow=classic;startArrow=classic;html=1;rounded=0;entryX=0;entryY=0.5;entryDx=0;entryDy=0;exitX=1;exitY=0;exitDx=0;exitDy=0;strokeWidth=5;" edge="1" parent="1" source="l6wvhNopdkESr6-qBpRT-10" target="l6wvhNopdkESr6-qBpRT-70">
          <mxGeometry width="50" height="50" relative="1" as="geometry">
            <mxPoint x="810" y="180" as="sourcePoint" />
            <mxPoint x="810" y="-200" as="targetPoint" />
            <Array as="points">
              <mxPoint x="860" y="-200" />
            </Array>
          </mxGeometry>
        </mxCell>
        <mxCell id="l6wvhNopdkESr6-qBpRT-72" value="" style="endArrow=classic;startArrow=classic;html=1;rounded=0;entryX=1;entryY=0;entryDx=0;entryDy=0;entryPerimeter=0;strokeWidth=5;" edge="1" parent="1" target="l6wvhNopdkESr6-qBpRT-37">
          <mxGeometry width="50" height="50" relative="1" as="geometry">
            <mxPoint x="1430" y="-190" as="sourcePoint" />
            <mxPoint x="1480" y="-240" as="targetPoint" />
            <Array as="points">
              <mxPoint x="1510" y="-190" />
            </Array>
          </mxGeometry>
        </mxCell>
        <mxCell id="l6wvhNopdkESr6-qBpRT-73" value="" style="endArrow=classic;startArrow=classic;html=1;rounded=0;entryX=0.398;entryY=-0.057;entryDx=0;entryDy=0;entryPerimeter=0;strokeWidth=5;" edge="1" parent="1" target="l6wvhNopdkESr6-qBpRT-58">
          <mxGeometry width="50" height="50" relative="1" as="geometry">
            <mxPoint x="1430" y="-190" as="sourcePoint" />
            <mxPoint x="1480" y="-240" as="targetPoint" />
            <Array as="points">
              <mxPoint x="1960" y="-190" />
            </Array>
          </mxGeometry>
        </mxCell>
        <mxCell id="l6wvhNopdkESr6-qBpRT-74" value="" style="image;aspect=fixed;perimeter=ellipsePerimeter;html=1;align=center;shadow=0;dashed=0;spacingTop=3;image=img/lib/active_directory/database.svg;strokeWidth=5;" vertex="1" parent="1">
          <mxGeometry x="1388.92" y="900" width="162.16" height="120" as="geometry" />
        </mxCell>
        <mxCell id="l6wvhNopdkESr6-qBpRT-75" value="&lt;font style=&quot;font-size: 48px;&quot;&gt;&lt;b style=&quot;&quot;&gt;&lt;i style=&quot;&quot;&gt;Notification Template&lt;/i&gt;&lt;/b&gt;&lt;/font&gt;" style="text;html=1;align=center;verticalAlign=middle;whiteSpace=wrap;rounded=0;strokeWidth=5;" vertex="1" parent="1">
          <mxGeometry x="1420" y="1060" width="60" height="30" as="geometry" />
        </mxCell>
        <mxCell id="l6wvhNopdkESr6-qBpRT-76" value="" style="image;aspect=fixed;perimeter=ellipsePerimeter;html=1;align=center;shadow=0;dashed=0;spacingTop=3;image=img/lib/active_directory/database.svg;strokeWidth=5;" vertex="1" parent="1">
          <mxGeometry x="1610" y="900" width="162.16" height="120" as="geometry" />
        </mxCell>
        <mxCell id="l6wvhNopdkESr6-qBpRT-77" value="&lt;font color=&quot;#ffffff&quot; style=&quot;font-size: 36px;&quot;&gt;&lt;b style=&quot;&quot;&gt;&lt;i style=&quot;&quot;&gt;DB&lt;/i&gt;&lt;/b&gt;&lt;/font&gt;" style="text;html=1;align=center;verticalAlign=middle;whiteSpace=wrap;rounded=0;strokeWidth=5;" vertex="1" parent="1">
          <mxGeometry x="651" y="810" width="176.08" height="80" as="geometry" />
        </mxCell>
        <mxCell id="l6wvhNopdkESr6-qBpRT-78" value="" style="endArrow=classic;startArrow=classic;html=1;rounded=0;strokeWidth=5;" edge="1" parent="1">
          <mxGeometry width="50" height="50" relative="1" as="geometry">
            <mxPoint x="1550" y="880" as="sourcePoint" />
            <mxPoint x="1550" y="680" as="targetPoint" />
          </mxGeometry>
        </mxCell>
        <mxCell id="l6wvhNopdkESr6-qBpRT-79" value="&lt;b style=&quot;forced-color-adjust: none; color: rgb(0, 0, 0); font-family: Helvetica; font-style: normal; font-variant-ligatures: normal; font-variant-caps: normal; letter-spacing: normal; orphans: 2; text-align: center; text-indent: 0px; text-transform: none; widows: 2; word-spacing: 0px; -webkit-text-stroke-width: 0px; white-space: normal; background-color: rgb(251, 251, 251); text-decoration-thickness: initial; text-decoration-style: initial; text-decoration-color: initial;&quot;&gt;&lt;font style=&quot;font-size: 24px;&quot;&gt;VALIDATOR&lt;/font&gt;&lt;/b&gt;" style="text;html=1;align=center;verticalAlign=middle;whiteSpace=wrap;rounded=0;" vertex="1" parent="1">
          <mxGeometry x="330" y="421.5" width="110" height="30" as="geometry" />
        </mxCell>
        <mxCell id="l6wvhNopdkESr6-qBpRT-80" value="&lt;font style=&quot;font-size: 24px;&quot;&gt;NOTIFICATION SERVICE / SERVER&amp;nbsp;&lt;/font&gt;" style="text;html=1;align=center;verticalAlign=middle;whiteSpace=wrap;rounded=0;rotation=-90;" vertex="1" parent="1">
          <mxGeometry x="760" y="330" width="70" height="33" as="geometry" />
        </mxCell>
        <mxCell id="l6wvhNopdkESr6-qBpRT-81" value="&lt;font color=&quot;#ffffff&quot; style=&quot;font-size: 36px;&quot;&gt;&lt;b style=&quot;&quot;&gt;&lt;i style=&quot;&quot;&gt;DB&lt;/i&gt;&lt;/b&gt;&lt;/font&gt;" style="text;html=1;align=center;verticalAlign=middle;whiteSpace=wrap;rounded=0;strokeWidth=5;" vertex="1" parent="1">
          <mxGeometry x="906.08" y="817" width="176.08" height="80" as="geometry" />
        </mxCell>
        <mxCell id="l6wvhNopdkESr6-qBpRT-82" value="&lt;b style=&quot;forced-color-adjust: none; color: rgb(0, 0, 0); font-family: Helvetica; font-size: 48px; font-style: normal; font-variant-ligatures: normal; font-variant-caps: normal; letter-spacing: normal; orphans: 2; text-align: center; text-indent: 0px; text-transform: none; widows: 2; word-spacing: 0px; -webkit-text-stroke-width: 0px; white-space: normal; background-color: rgb(251, 251, 251); text-decoration-thickness: initial; text-decoration-style: initial; text-decoration-color: initial;&quot;&gt;&lt;i style=&quot;forced-color-adjust: none;&quot;&gt;Notification&amp;nbsp;&lt;/i&gt;&lt;/b&gt;&lt;div&gt;&lt;b style=&quot;forced-color-adjust: none; color: rgb(0, 0, 0); font-family: Helvetica; font-size: 48px; font-style: normal; font-variant-ligatures: normal; font-variant-caps: normal; letter-spacing: normal; orphans: 2; text-align: center; text-indent: 0px; text-transform: none; widows: 2; word-spacing: 0px; -webkit-text-stroke-width: 0px; white-space: normal; background-color: rgb(251, 251, 251); text-decoration-thickness: initial; text-decoration-style: initial; text-decoration-color: initial;&quot;&gt;&lt;i style=&quot;forced-color-adjust: none;&quot;&gt;Logs&lt;/i&gt;&lt;/b&gt;&lt;/div&gt;" style="text;whiteSpace=wrap;html=1;" vertex="1" parent="1">
          <mxGeometry x="1630" y="1010" width="520" height="80" as="geometry" />
        </mxCell>
        <mxCell id="l6wvhNopdkESr6-qBpRT-83" value="Text" style="text;html=1;align=center;verticalAlign=middle;whiteSpace=wrap;rounded=0;" vertex="1" parent="1">
          <mxGeometry x="1120" y="-90" width="60" height="30" as="geometry" />
        </mxCell>
        <mxCell id="l6wvhNopdkESr6-qBpRT-85" value="&lt;font style=&quot;font-size: 36px;&quot;&gt;RATE LIMITER +&amp;nbsp; NOTIFICATION PREFERENCE + USER INFO FETCHER&lt;/font&gt;&lt;div&gt;&lt;font style=&quot;font-size: 36px;&quot;&gt;+ AUTHENTICATION&lt;/font&gt;&lt;/div&gt;" style="text;html=1;align=center;verticalAlign=middle;whiteSpace=wrap;rounded=0;" vertex="1" parent="1">
          <mxGeometry x="70" y="-470" width="700" height="250" as="geometry" />
        </mxCell>
        <mxCell id="l6wvhNopdkESr6-qBpRT-86" value="Text" style="text;html=1;align=center;verticalAlign=middle;whiteSpace=wrap;rounded=0;" vertex="1" parent="1">
          <mxGeometry x="130" y="-130" width="60" height="30" as="geometry" />
        </mxCell>
        <mxCell id="l6wvhNopdkESr6-qBpRT-89" value="" style="endArrow=classic;html=1;rounded=0;" edge="1" parent="1">
          <mxGeometry width="50" height="50" relative="1" as="geometry">
            <mxPoint x="420" y="-270" as="sourcePoint" />
            <mxPoint x="910" y="210" as="targetPoint" />
          </mxGeometry>
        </mxCell>
        <mxCell id="l6wvhNopdkESr6-qBpRT-90" value="&lt;span style=&quot;font-size: 36px;&quot;&gt;CLICK EVENTS CAPTURED&lt;/span&gt;&lt;div&gt;&lt;span style=&quot;font-size: 36px;&quot;&gt;&lt;br&gt;&lt;/span&gt;&lt;/div&gt;" style="text;html=1;align=center;verticalAlign=middle;whiteSpace=wrap;rounded=0;" vertex="1" parent="1">
          <mxGeometry x="1600" y="-330" width="700" height="250" as="geometry" />
        </mxCell>
      </root>
    </mxGraphModel>
  </diagram>
</mxfile>
